<svg width="20" height="20" viewBox="0 0 20 20" fill="none" xmlns="http://www.w3.org/2000/svg">
<path d="M7.50008 1.66675H12.5001C16.6667 1.66675 18.3334 3.33341 18.3334 7.50008V12.5001C18.3334 16.6667 16.6667 18.3334 12.5001 18.3334H7.50008C3.33341 18.3334 1.66675 16.6667 1.66675 12.5001V7.50008C1.66675 3.33341 3.33341 1.66675 7.50008 1.66675Z" stroke="#101010" stroke-width="1.2" stroke-linecap="round" stroke-linejoin="round"/>
<path d="M7.1416 12.7249L12.5916 7.2749" stroke="#101010" stroke-width="1.2" stroke-linecap="round" stroke-linejoin="round"/>
<path d="M7.48326 8.64155C8.04935 8.64155 8.50824 8.18265 8.50824 7.61656C8.50824 7.05047 8.04935 6.59155 7.48326 6.59155C6.91717 6.59155 6.45825 7.05047 6.45825 7.61656C6.45825 8.18265 6.91717 8.64155 7.48326 8.64155Z" stroke="#101010" stroke-width="1.2" stroke-linecap="round" stroke-linejoin="round"/>
<path d="M12.9334 13.4081C13.4995 13.4081 13.9584 12.9492 13.9584 12.3831C13.9584 11.817 13.4995 11.3582 12.9334 11.3582C12.3673 11.3582 11.9084 11.817 11.9084 12.3831C11.9084 12.9492 12.3673 13.4081 12.9334 13.4081Z" stroke="#101010" stroke-width="1.2" stroke-linecap="round" stroke-linejoin="round"/>
</svg>
